<?xml version="1.0" encoding="UTF-8"?>
<svg xmlns="http://www.w3.org/2000/svg" viewBox="0 0 1024 1024" role="img" aria-labelledby="title desc">
  <title id="title">Quietfolio logo mark</title>
  <desc id="desc">A violet letter Q shaped like a book spine, with a turning page forming its tail.</desc>
  <defs>
    <linearGradient id="qGradient" x1="360" y1="170" x2="650" y2="865" gradientUnits="userSpaceOnUse">
      <stop offset="0" stop-color="#d9bcff"/>
      <stop offset="0.42" stop-color="#ad86ff"/>
      <stop offset="1" stop-color="#6f43ef"/>
    </linearGradient>
    <linearGradient id="pageTop" x1="540" y1="675" x2="760" y2="845" gradientUnits="userSpaceOnUse">
      <stop offset="0" stop-color="#e2c8ff"/>
      <stop offset="0.48" stop-color="#c59bff"/>
      <stop offset="1" stop-color="#9b6df7"/>
    </linearGradient>
    <linearGradient id="pageUnder" x1="500" y1="700" x2="760" y2="865" gradientUnits="userSpaceOnUse">
      <stop offset="0" stop-color="#4930ad"/>
      <stop offset="0.58" stop-color="#6c46df"/>
      <stop offset="1" stop-color="#8b62f2"/>
    </linearGradient>
  
    <mask id="spineCuts" maskUnits="userSpaceOnUse" x="0" y="0" width="1024" height="1024">
      <rect width="1024" height="1024" fill="white"/>
    </mask>
  </defs>

  <path mask="url(#spineCuts)" fill="url(#qGradient)" fill-rule="evenodd" d="
    M512 150 C350 150 230 278 230 440 V600 C230 774 350 870 512 870 C674 870 794 774 794 600 V440 C794 278 674 150 512 150 Z
    M512 260 C414 260 340 340 340 448 V588 C340 696 414 760 512 760 C610 760 684 696 684 588 V448 C684 340 610 260 512 260 Z"/>
  <path fill="url(#pageUnder)" d="M477 676 C542 688 564 748 604 810 C648 878 731 884 819 832 C744 826 701 802 659 757 C612 706 556 676 477 676 Z"/>
  <path fill="url(#pageTop)" d="M477 676 C548 679 590 704 630 749 C671 796 716 832 819 832 C742 852 677 849 633 818 C582 782 556 711 477 676 Z"/>
  <path d="M491 684 C548 710 573 773 628 811 C673 843 735 844 798 833" fill="none" stroke="#f0e2ff" stroke-opacity="0.70" stroke-width="5" stroke-linecap="round"/>
</svg>
